<svg width="52" height="52" viewBox="0 0 52 52" fill="none" xmlns="http://www.w3.org/2000/svg" class="tw-w-[30px] md:tw-w-[52px] tw-h-[30px] md:tw-h-[52px]"><g clip-path="url(#clip0_1160_3930)"><path d="M48.6352 15.405L26.9686 4.57164C26.6676 4.42101 26.3356 4.34259 25.999 4.34259C25.6624 4.34259 25.3304 4.42101 25.0294 4.57164L3.36275 15.405C2.9404 15.625 2.60175 15.9774 2.39858 16.4081C2.26433 16.7032 2.18574 17.0205 2.16675 17.3441V29.835C2.16675 30.4096 2.39502 30.9607 2.80135 31.367C3.20768 31.7734 3.75878 32.0016 4.33341 32.0016C4.90805 32.0016 5.45915 31.7734 5.86548 31.367C6.27181 30.9607 6.50008 30.4096 6.50008 29.835V19.8726L26.0326 28.0106L48.4727 19.357C48.8604 19.2013 49.1949 18.9369 49.4359 18.5957C49.6769 18.2545 49.8143 17.8509 49.8314 17.4335C49.8486 17.0161 49.7448 16.6026 49.5326 16.2427C49.3204 15.8829 49.0088 15.592 48.6352 15.405Z" fill="#F2A057"></path><path d="M26.0001 32.5108C25.7162 32.5108 25.4324 32.4545 25.1659 32.344L10.8334 26.3705V32.9008C10.8336 33.3031 10.9458 33.6973 11.1574 34.0395C11.3691 34.3816 11.6717 34.658 12.0316 34.8378C15.7474 36.6968 19.5759 38.9956 26.0001 38.9956C32.4199 38.9956 36.2593 36.6925 39.9686 34.8378C40.3286 34.6588 40.6314 34.3828 40.8431 34.041C41.0548 33.6992 41.1669 33.305 41.1667 32.903V26.8342L26.7779 32.3678C26.5295 32.4623 26.2659 32.5108 26.0001 32.5108ZM4.33341 34.6775C3.75878 34.6775 3.20768 34.9058 2.80135 35.3121C2.39502 35.7184 2.16675 36.2695 2.16675 36.8441V41.1775C2.16675 41.7521 2.39502 42.3032 2.80135 42.7095C3.20768 43.1159 3.75878 43.3442 4.33341 43.3442C4.90805 43.3442 5.45915 43.1159 5.86548 42.7095C6.27181 42.3032 6.50008 41.7521 6.50008 41.1775V36.8441C6.50008 36.2695 6.27181 35.7184 5.86548 35.3121C5.45915 34.9058 4.90805 34.6775 4.33341 34.6775Z" fill="#F2A057"></path></g><defs><clipPath id="clip0_1160_3930"><rect width="52" height="52" fill="white"></rect></clipPath></defs></svg>