<svg xmlns="http://www.w3.org/2000/svg" viewBox="0 0 293.965 293.962" class="tw-max-h-[293px] tw-w-full tw-max-w-[293px] !tw-max-h-[100px] !tw-max-w-[100px] md:!tw-max-h-[150px] md:!tw-max-w-[150px]"><g id="Group_10671" data-name="Group 10671" transform="translate(354.006 218.325) rotate(154)" opacity="0.248"><ellipse id="Ellipse_700" data-name="Ellipse 700" cx="19.375" cy="19.375" rx="19.375" ry="19.375" transform="translate(36.842 64.326) rotate(-45)" fill="none" stroke="#fff" stroke-width="2"></ellipse><ellipse id="Ellipse_701" data-name="Ellipse 701" cx="19.375" cy="19.375" rx="19.375" ry="19.375" transform="translate(217.949 245.427) rotate(-45)" fill="none" stroke="#fff" stroke-width="2"></ellipse><path id="Path_33631" data-name="Path 33631" d="M156.673,90.307H185.18a19.375,19.375,0,1,1,0,38.751H156.673L213.909,186.4a19.49,19.49,0,0,1,0,27.5h0a19.49,19.49,0,0,1-27.5,0l-57.235-57.235v28.395a19.375,19.375,0,1,1-38.751,0V156.562L33.183,213.8a19.49,19.49,0,0,1-27.5,0h0a19.49,19.49,0,0,1,0-27.5l57.235-57.235H34.519a19.375,19.375,0,1,1,0-38.751H63.026L5.79,33.183a19.49,19.49,0,0,1,0-27.5h0a19.49,19.49,0,0,1,27.5,0L90.53,62.914V34.408a19.375,19.375,0,0,1,38.751,0V62.914L186.516,5.679a19.49,19.49,0,0,1,27.5,0h0a19.49,19.49,0,0,1,0,27.5Zm-46.88,0a19.375,19.375,0,1,0,19.375,19.375A19.389,19.389,0,0,0,109.794,90.307Z" transform="translate(0 155.351) rotate(-45)" fill="none" stroke="#fff" stroke-width="2"></path><ellipse id="Ellipse_702" data-name="Ellipse 702" cx="19.375" cy="19.375" rx="19.375" ry="19.375" transform="translate(36.842 245.427) rotate(-45)" fill="none" stroke="#fff" stroke-width="2"></ellipse><ellipse id="Ellipse_703" data-name="Ellipse 703" cx="19.375" cy="19.375" rx="19.375" ry="19.375" transform="translate(217.949 64.326) rotate(-45)" fill="none" stroke="#fff" stroke-width="2"></ellipse></g></svg>