<svg xmlns="http://www.w3.org/2000/svg" viewBox="0 0 417.37 87.26" class="tw-max-h-[50px] tw-w-full tw-max-w-[200px]"><g id="Group_23532" data-name="Group 23532" transform="translate(-1037 -41)"><g id="Group_1727" data-name="Group 1727" transform="translate(1037 41)"><g id="Group_1726" data-name="Group 1726" transform="translate(0 0)"><g id="Group_81" data-name="Group 81" transform="translate(0)"><g id="Untitled"><g id="Group_9081" data-name="Group 9081"><ellipse id="Ellipse_3" data-name="Ellipse 3" cx="5.734" cy="5.734" rx="5.734" ry="5.734" transform="translate(37.895 75.792)" fill="#fff"></ellipse><ellipse id="Ellipse_4" data-name="Ellipse 4" cx="5.734" cy="5.734" rx="5.734" ry="5.734" transform="translate(37.895)" fill="#fff"></ellipse><path id="Path_35" data-name="Path 35" d="M80.165,71.459H88.6a5.734,5.734,0,0,0,0-11.468H80.165L97.1,43.02a5.768,5.768,0,0,0,0-8.139h0a5.768,5.768,0,0,0-8.139,0L72.025,51.819v-8.4a5.734,5.734,0,1,0-11.468,0v8.436L43.62,34.914a5.768,5.768,0,0,0-8.139,0h0a5.768,5.768,0,0,0,0,8.139L52.418,59.991h-8.4a5.734,5.734,0,0,0,0,11.468h8.436L35.514,88.364a5.768,5.768,0,0,0,0,8.139h0a5.768,5.768,0,0,0,8.139,0L60.591,79.565V88a5.734,5.734,0,1,0,11.468,0V79.565L89,96.5a5.768,5.768,0,0,0,8.139,0h0a5.768,5.768,0,0,0,0-8.139Zm-13.873,0a5.734,5.734,0,1,1,5.734-5.734A5.738,5.738,0,0,1,66.292,71.459Z" transform="translate(-22.661 -22.26)" fill="#fff"></path><ellipse id="Ellipse_5" data-name="Ellipse 5" cx="5.734" cy="5.734" rx="5.734" ry="5.734" transform="translate(0 37.896)" fill="#fff"></ellipse><ellipse id="Ellipse_6" data-name="Ellipse 6" cx="5.734" cy="5.734" rx="5.734" ry="5.734" transform="translate(75.794 37.896)" fill="#fff"></ellipse></g><g id="Group_9082" data-name="Group 9082" transform="translate(103.802 12.943)"><path id="Path_36" data-name="Path 36" d="M315,104.854a12.138,12.138,0,0,0,3.221-.33,2.3,2.3,0,0,0,1.446-1.322,9.653,9.653,0,0,0,.413-3.18V71.4h4.708l.041,29.076a11.285,11.285,0,0,1-1.074,5.534,4.892,4.892,0,0,1-3.1,2.4,22.191,22.191,0,0,1-5.658.578Z" transform="translate(-315 -60.184)" fill="#fff" stroke="#fff" stroke-linecap="round" stroke-width="0.5"></path><path id="Path_37" data-name="Path 37" d="M359.917,103.53a10.319,10.319,0,0,1-4.3-5.617,31.461,31.461,0,0,1-1.321-9.995,32.285,32.285,0,0,1,1.321-10.036,10.428,10.428,0,0,1,4.3-5.782,18.019,18.019,0,0,1,16.107,0,10.574,10.574,0,0,1,4.3,5.782A32.3,32.3,0,0,1,381.64,88a31.319,31.319,0,0,1-1.28,9.954,10.256,10.256,0,0,1-4.254,5.617c-1.982,1.239-4.708,1.817-8.136,1.817A16.011,16.011,0,0,1,359.917,103.53Zm13.464-3.717a7.1,7.1,0,0,0,2.643-4.13,31.469,31.469,0,0,0,.785-7.723,30.824,30.824,0,0,0-.785-7.847,7.9,7.9,0,0,0-2.685-4.378,10.652,10.652,0,0,0-10.573,0,7.488,7.488,0,0,0-2.684,4.337,30.6,30.6,0,0,0-.785,7.847,29.075,29.075,0,0,0,.785,7.641,7.315,7.315,0,0,0,2.643,4.213,9.035,9.035,0,0,0,5.369,1.4A9.686,9.686,0,0,0,373.38,99.813Z" transform="translate(-338.068 -58.982)" fill="#fff" stroke="#fff" stroke-linecap="round" stroke-width="0.5"></path><path id="Path_38" data-name="Path 38" d="M462.4,68.5h1.8v61.115h-1.8Z" transform="translate(-405.121 -68.5)" fill="#fff"></path><path id="Path_39" data-name="Path 39" d="M532.049,97.544H518.256l-2.148,7.971H511.4L520.238,71.4h9.829l8.838,34.115H534.2Zm-12.8-4.213h11.811l-4.625-17.883h-2.56Z" transform="translate(-438.611 -58.341)" fill="#fff" stroke="#fff" stroke-linecap="round" stroke-width="0.5"></path><path id="Path_40" data-name="Path 40" d="M590.856,103.247a9.959,9.959,0,0,1-3.882-5.7,37.354,37.354,0,0,1-1.074-9.871,38.983,38.983,0,0,1,1.074-10.119,10.115,10.115,0,0,1,3.841-5.658c1.817-1.239,4.419-1.9,7.805-1.9a45.467,45.467,0,0,1,9.5,1.2l-.165,3.924a46.662,46.662,0,0,0-8.425-.826,9.98,9.98,0,0,0-5.616,1.322,6.571,6.571,0,0,0-2.519,4.254,41.162,41.162,0,0,0-.578,8.467,33.645,33.645,0,0,0,.619,7.393,6.263,6.263,0,0,0,2.519,3.924,10.466,10.466,0,0,0,5.823,1.322,52.347,52.347,0,0,0,8.177-.826l.165,4.006a46.679,46.679,0,0,1-9.168,1.074C595.44,105.23,592.714,104.569,590.856,103.247Z" transform="translate(-476.128 -58.784)" fill="#fff" stroke="#fff" stroke-linecap="round" stroke-width="0.5"></path><path id="Path_41" data-name="Path 41" d="M667.749,97.544H653.955l-2.147,7.971H647.1L655.938,71.4h9.829l8.838,34.115H669.9Zm-12.8-4.213h11.811l-4.625-17.883h-2.561Z" transform="translate(-505.631 -58.341)" fill="#fff" stroke="#fff" stroke-linecap="round" stroke-width="0.5"></path><path id="Path_42" data-name="Path 42" d="M746.354,73.506a10.591,10.591,0,0,1,3.924,5.576,30.3,30.3,0,0,1,1.033,8.632,33.158,33.158,0,0,1-1.322,10.243,10.8,10.8,0,0,1-4.212,5.741,13.865,13.865,0,0,1-7.641,1.817H726.2V71.4h11.935C741.687,71.4,744.413,72.1,746.354,73.506ZM744.5,98.039c1.281-2.189,1.941-5.617,1.941-10.243a25.57,25.57,0,0,0-.826-7.1,6.887,6.887,0,0,0-2.643-3.924,8.519,8.519,0,0,0-4.874-1.239h-7.186V101.3h7.186C741.109,101.343,743.215,100.228,744.5,98.039Z" transform="translate(-547.746 -58.341)" fill="#fff" stroke="#fff" stroke-linecap="round" stroke-width="0.5"></path><path id="Path_43" data-name="Path 43" d="M808.049,75.571V86.186H821.43v4.13H808.049v11.069H824.4v4.13H803.3V71.4h21.1v4.171Z" transform="translate(-590.257 -58.341)" fill="#fff" stroke="#fff" stroke-linecap="round" stroke-width="0.5"></path><path id="Path_44" data-name="Path 44" d="M903.482,71.4v34.115h-4.749V76.563h-.743l-8.879,27.589h-5.039l-8.921-27.589h-.7v28.952H869.7V71.4h8.343l8.59,27.8,8.507-27.8Z" transform="translate(-626.076 -58.341)" fill="#fff" stroke="#fff" stroke-linecap="round" stroke-width="0.5"></path><path id="Path_45" data-name="Path 45" d="M972.938,91.407,962.2,71.5h5.286l7.848,15.2L983.1,71.5h5.369L977.728,91.407v14.166h-4.75V91.407Z" transform="translate(-675.316 -58.441)" fill="#fff" stroke="#fff" stroke-linecap="round" stroke-width="0.5"></path></g></g></g></g></g></g></svg>